<svg xmlns="http://www.w3.org/2000/svg" style="background:0 0" viewBox="0 0 1920 1080"><g fill="rgba(235, 225, 245, 0.65)"><path d="M1888.005 995.859c-3.018-5.702-12.004-22.837-18.108-34.208s-12.312-22.692-18.514-34.016a8744 8744 0 0 0-18.7-33.928c-6.255-11.3-12.535-22.587-18.826-33.87a16030 16030 0 0 0-18.92-33.824 19900 19900 0 0 0-18.996-33.79 24042 24042 0 0 0-19.058-33.76 28525 28525 0 0 0-19.109-33.736 33421 33421 0 0 0-19.153-33.715 44780.68 44780.68 0 0 0-57.666-101.048 58934 58934 0 0 0-38.574-67.304 77062 77062 0 0 0-38.65-67.268 100984 100984 0 0 0-38.709-67.241 133677 133677 0 0 0-38.752-67.22 180337 180337 0 0 0-38.786-67.205q-9.7-16.8-19.402-33.598c-6.468-11.2-16.172-27.996-19.407-33.596 2.054 6.155 8.208 24.625 12.325 36.93a24216 24216 0 0 0 24.821 73.782 23092 23092 0 0 0 25.057 73.67 21917 21917 0 0 0 25.306 73.552 20670 20670 0 0 0 25.567 73.43 19323 19323 0 0 0 25.847 73.297 17842 17842 0 0 0 26.148 73.156q6.577 18.27 13.196 36.52a15274 15274 0 0 0 13.283 36.48q6.664 18.23 13.375 36.436 6.711 18.208 13.474 36.39t13.582 36.339c4.547 12.103 9.11 24.199 13.7 36.283a9429 9429 0 0 0 13.834 36.22 7851 7851 0 0 0 13.99 36.147 6011 6011 0 0 0 14.18 36.057c4.77 11.998 9.54 23.997 14.442 35.933s12.475 29.738 14.97 35.686Z"/><path d="M1889.041 977.597c-3.5-4.119-13.93-16.526-20.999-24.712s-14.243-16.294-21.41-24.406a5426 5426 0 0 0-21.599-24.266 7703 7703 0 0 0-21.724-24.173 10046 10046 0 0 0-21.819-24.102 12534 12534 0 0 0-21.894-24.046 15219 15219 0 0 0-21.955-24q-10.991-11.991-22.006-23.964a21382 21382 0 0 0-22.049-23.93q-11.034-11.959-22.086-23.904t-22.117-23.88a33490 33490 0 0 0-44.313-47.7 44437 44437 0 0 0-44.397-47.64 58891 58891 0 0 0-44.458-47.594 78568 78568 0 0 0-44.506-47.558 106316 106316 0 0 0-44.54-47.532 147157 147157 0 0 0-44.567-47.513l-22.29-23.751c2.516 4.85 10.053 19.411 15.094 29.106a14905 14905 0 0 0 30.362 58.084 14164 14164 0 0 0 30.606 57.902 13404 13404 0 0 0 30.861 57.712 12611 12611 0 0 0 31.133 57.511 11768 11768 0 0 0 31.421 57.295 10853 10853 0 0 0 31.733 57.064q7.975 14.236 15.993 28.438a9285 9285 0 0 0 16.082 28.371 8691 8691 0 0 0 16.177 28.3q8.114 14.132 16.28 28.225a7355 7355 0 0 0 16.39 28.141 6592 6592 0 0 0 16.513 28.051 5745 5745 0 0 0 16.65 27.949 4789 4789 0 0 0 16.81 27.83 3671 3671 0 0 0 17.006 27.684c5.713 9.195 11.425 18.39 17.273 27.485s14.84 22.571 17.81 27.086Z"/><path d="M1882.612 948.024c-5.682-3.74-22.668-15.041-34.094-22.439s-22.947-14.669-34.463-21.948a7256 7256 0 0 0-34.629-21.727 10368 10368 0 0 0-34.74-21.579 13605 13605 0 0 0-34.824-21.468 17074 17074 0 0 0-34.89-21.38 20848 20848 0 0 0-34.942-21.311 24993 24993 0 0 0-34.986-21.253 29579 29579 0 0 0-35.023-21.202 34678 34678 0 0 0-35.054-21.161 40373 40373 0 0 0-35.082-21.126q-17.547-10.554-35.105-21.094a53931 53931 0 0 0-70.267-42.112 71121 71121 0 0 0-70.328-42.03 92961 92961 0 0 0-70.375-41.968 120481 120481 0 0 0-70.411-41.92 154310 154310 0 0 0-70.44-41.884q-17.612-10.466-35.228-20.93c-11.743-6.975-29.36-17.436-35.233-20.923 4.792 4.925 19.157 19.712 28.748 29.55a19880 19880 0 0 0 57.652 58.896 18728 18728 0 0 0 57.868 58.607 17591 17591 0 0 0 58.099 58.3 16447 16447 0 0 0 58.344 57.975 15270 15270 0 0 0 58.607 57.623q14.687 14.36 29.41 28.671 14.722 14.312 29.483 28.573 14.76 14.261 29.562 28.468 14.801 14.207 29.644 28.359a11201 11201 0 0 0 29.732 28.242q14.889 14.09 29.826 28.117c9.96 9.35 19.934 18.68 29.928 27.981a8514 8514 0 0 0 30.04 27.833 7434 7434 0 0 0 30.166 27.665 6212 6212 0 0 0 30.312 27.47 4777 4777 0 0 0 30.49 27.233c10.205 9.023 20.409 18.047 30.734 26.909s26.017 21.886 31.22 26.263Z"/><path d="M1889.433 989.596c-2.864-4.516-11.386-18.1-17.182-27.092-5.797-8.992-11.701-17.925-17.6-26.86a5595 5595 0 0 0-17.791-26.754 7813 7813 0 0 0-17.923-26.68 9999 9999 0 0 0-18.023-26.624 12209 12209 0 0 0-18.104-26.58q-9.07-13.279-18.172-26.54a16782 16782 0 0 0-18.23-26.51 19161 19161 0 0 0-18.28-26.481q-9.152-13.235-18.325-26.457a24114 24114 0 0 0-36.764-52.849 29302 29302 0 0 0-36.895-52.776 34663 34663 0 0 0-37.005-52.716 40102 40102 0 0 0-37.098-52.663 45495 45495 0 0 0-37.181-52.617 50696 50696 0 0 0-55.909-78.85c-6.22-8.756-15.557-21.887-18.669-26.264 1.905 5.048 7.612 20.199 11.43 30.292a19521 19521 0 0 0 23 60.507 18196 18196 0 0 0 23.2 60.396 16887 16887 0 0 0 23.415 60.276 15579 15579 0 0 0 23.646 60.147 14252 14252 0 0 0 23.9 60.007 12886 12886 0 0 0 24.176 59.852q6.082 14.944 12.202 29.863 6.122 14.92 12.285 29.817t12.374 29.768q6.209 14.87 12.469 29.714a8234 8234 0 0 0 12.574 29.656 7310 7310 0 0 0 12.69 29.591 6312 6312 0 0 0 12.823 29.517c4.3 9.825 8.62 19.639 12.98 29.431a3961 3961 0 0 0 13.17 29.324c4.435 9.75 8.869 19.5 13.437 29.176s11.645 24.064 13.974 28.877Z"/></g></svg>