<svg xmlns="http://www.w3.org/2000/svg" style="background:0 0" viewBox="0 0 1920 1080"><g fill="rgba(60, 15, 90, 0.85)"><path d="M2016.373 922.325c-4.187-8.043-16.686-32.203-25.121-48.26-8.436-16.057-16.967-32.067-25.493-48.08a18364 18364 0 0 0-25.665-47.996 25518 25518 0 0 0-25.783-47.94 32536 32536 0 0 0-25.874-47.895 39628 39628 0 0 0-25.948-47.86q-12.99-23.921-26.009-47.83a54396 54396 0 0 0-26.061-47.804 70307.004 70307.004 0 0 0-78.438-143.29 87692 87692 0 0 0-52.46-95.447 106841 106841 0 0 0-52.563-95.395 128033 128033 0 0 0-52.652-95.353 151546 151546 0 0 0-52.726-95.317 177648 177648 0 0 0-52.788-95.287 206582 206582 0 0 0-52.841-95.26c-8.811-15.876-22.033-39.686-26.44-47.623 3.338 8.455 13.343 33.823 20.025 50.728a60287 60287 0 0 0 40.182 101.392 57093 57093 0 0 0 40.368 101.302 53758 53758 0 0 0 40.563 101.207 50241 50241 0 0 0 40.774 101.105 46492 46492 0 0 0 41 100.996 42451 42451 0 0 0 41.246 100.876 38038 38038 0 0 0 41.52 100.744 33148 33148 0 0 0 20.873 50.317 30478 30478 0 0 0 20.958 50.276 27626 27626 0 0 0 21.049 50.232 24555 24555 0 0 0 21.15 50.183c7.07 16.718 14.156 33.428 21.268 50.126 7.111 16.698 14.24 33.387 21.403 50.06a13298 13298 0 0 0 21.572 49.98c7.229 16.64 14.457 33.282 21.804 49.865s18.565 41.364 22.278 49.637Z"/><path d="M1995.401 872.157c-7.124-2.97-28.456-11.967-42.742-17.826-14.287-5.86-28.634-11.59-42.978-17.329a10111 10111 0 0 0-43.087-17.099 14166 14166 0 0 0-43.16-16.943 18204 18204 0 0 0-43.216-16.824 22341 22341 0 0 0-43.261-16.73 26632 26632 0 0 0-43.3-16.65 31114 31114 0 0 0-43.33-16.582 35815 35815 0 0 0-43.358-16.524 40757 40757 0 0 0-43.382-16.474 51440.163 51440.163 0 0 0-130.265-49.17 63286 63286 0 0 0-86.924-32.61 76362 76362 0 0 0-86.974-32.504 90670 90670 0 0 0-87.017-32.413 106110 106110 0 0 0-87.053-32.337 122455 122455 0 0 0-87.084-32.271c-14.517-5.374-36.294-13.428-43.553-16.113 6.577 4.128 26.301 16.523 39.459 24.77a32180 32180 0 0 0 79.004 49.357 30304 30304 0 0 0 79.125 49.1 28404 28404 0 0 0 79.255 48.828 26454 26454 0 0 0 79.393 48.535 24424 24424 0 0 0 79.542 48.22 22277 22277 0 0 0 79.705 47.874 19966 19966 0 0 0 39.92 23.797 18730 18730 0 0 0 39.966 23.695q19.996 11.822 40.018 23.588a16046 16046 0 0 0 40.073 23.471 14570 14570 0 0 0 40.134 23.344 12979 12979 0 0 0 40.2 23.202 11243 11243 0 0 0 40.276 23.043 9315 9315 0 0 0 40.364 22.855 7097 7097 0 0 0 40.474 22.623c13.516 7.489 27.032 14.978 40.624 22.307s34.106 18.052 40.928 21.663Z"/><path d="M2005.634 890.28c-7.127-5.219-28.457-20.94-42.762-31.313-14.305-10.374-28.688-20.648-43.067-30.927a14432 14432 0 0 0-43.209-30.745c-14.42-10.227-28.859-20.43-43.308-30.62a24955 24955 0 0 0-43.384-30.521 29953 29953 0 0 0-43.447-30.442 34867 34867 0 0 0-43.501-30.374 39716 39716 0 0 0-43.547-30.314 44505 44505 0 0 0-43.589-30.263 53878.627 53878.627 0 0 0-130.975-90.52 62913 62913 0 0 0-87.464-60.157 71504 71504 0 0 0-87.565-60.03 79542 79542 0 0 0-87.656-59.916 86928 86928 0 0 0-87.737-59.811 93584 93584 0 0 0-131.747-89.537c-14.647-9.938-36.625-24.834-43.95-29.801 6.454 6.075 25.811 24.308 38.724 36.453a61490 61490 0 0 0 77.535 72.797 56563 56563 0 0 0 77.656 72.642 51797 51797 0 0 0 77.788 72.475 47140 47140 0 0 0 77.933 72.289 42537 42537 0 0 0 78.094 72.085 37923 37923 0 0 0 78.273 71.857q19.593 17.934 39.211 35.834a30819 30819 0 0 0 39.266 35.764 28353 28353 0 0 0 39.324 35.69 25813 25813 0 0 0 39.389 35.607 23176 23176 0 0 0 39.46 35.518 20414 20414 0 0 0 39.54 35.416 17485 17485 0 0 0 39.63 35.3c13.228 11.743 26.47 23.47 39.738 35.161a10787 10787 0 0 0 39.874 34.99c13.323 11.624 26.644 23.25 40.062 34.751 13.418 11.503 33.705 28.552 40.446 34.262Z"/><path d="M2020.923 916.08c-4.96-8.386-19.777-33.582-29.763-50.32-9.987-16.737-20.075-33.418-30.157-50.103a20208 20208 0 0 0-30.335-50.006 28889 28889 0 0 0-30.455-49.94 37985 37985 0 0 0-30.543-49.893 47848 47848 0 0 0-30.612-49.854 58753 58753 0 0 0-30.668-49.823 70984 70984 0 0 0-30.715-49.797 84875 84875 0 0 0-30.753-49.777q-15.386-24.883-30.785-49.759a119400 119400 0 0 0-61.649-99.475 167331 167331 0 0 0-61.727-99.431 237863 237863 0 0 0-61.782-99.402 350070 350070 0 0 0-61.82-99.38 550857 550857 0 0 0-61.846-99.367 993745 993745 0 0 0-61.86-99.36l-30.933-49.677c-10.31-16.56-25.777-41.398-30.933-49.678 4.003 8.913 16 35.655 24.016 53.475a50477 50477 0 0 0 48.21 106.851 48163 48163 0 0 0 48.458 106.716 45795 45795 0 0 0 48.719 106.572 43319 43319 0 0 0 48.993 106.422 40668 40668 0 0 0 49.285 106.261 37760 37760 0 0 0 49.598 106.09 34488 34488 0 0 0 24.924 52.976q12.484 26.476 25.015 52.926a30711 30711 0 0 0 25.109 52.875 28571 28571 0 0 0 25.21 52.82q12.63 26.395 25.32 52.758c8.459 17.576 16.936 35.141 25.439 52.694a20682 20682 0 0 0 25.574 52.619c8.55 17.525 17.121 35.04 25.73 52.534a13360 13360 0 0 0 25.92 52.429c8.684 17.452 17.367 34.905 26.18 52.287s22.247 43.336 26.697 52.003Z"/><path d="M1990.925 861.767c-9.26-2.959-37.003-11.927-55.556-17.75s-37.157-11.504-55.76-17.193a15290 15290 0 0 0-55.851-16.942 21864 21864 0 0 0-55.914-16.774c-18.645-5.57-37.3-11.115-55.96-16.649a36092 36092 0 0 0-55.995-16.55 44141 44141 0 0 0-56.024-16.47 53019 53019 0 0 0-56.05-16.406 62885 62885 0 0 0-56.068-16.35 73914 73914 0 0 0-56.086-16.303 86304 86304 0 0 0-56.101-16.263q-28.055-8.122-56.114-16.229a116101 116101 0 0 0-112.258-32.372 154478 154478 0 0 0-112.291-32.283 204173 204173 0 0 0-112.316-32.215 268219 268219 0 0 0-112.335-32.163 348976 348976 0 0 0-112.35-32.125q-28.088-8.026-56.178-16.05c-18.727-5.35-46.818-13.37-56.182-16.044 8.764 4.309 35.05 17.247 52.583 25.85a40873 40873 0 0 0 105.253 51.464 38551 38551 0 0 0 105.374 51.133 36260 36260 0 0 0 105.503 50.78 33954 33954 0 0 0 105.64 50.408 31579 31579 0 0 0 105.788 50.005q26.466 12.449 52.953 24.842a27741 27741 0 0 0 52.994 24.73 26347 26347 0 0 0 53.038 24.609 24874 24874 0 0 0 53.084 24.484q26.554 12.21 53.133 24.351 26.579 12.142 53.185 24.209a19789 19789 0 0 0 53.242 24.053 17781 17781 0 0 0 53.305 23.884c17.78 7.93 35.57 15.832 53.375 23.693a13012 13012 0 0 0 53.456 23.47 10024 10024 0 0 0 53.555 23.2c17.874 7.672 35.749 15.344 53.69 22.832 17.942 7.488 44.967 18.414 53.96 22.097Z"/></g></svg>