<svg xmlns="http://www.w3.org/2000/svg" style="background:0 0" viewBox="0 0 1920 1080"><g fill="rgba(140, 120, 160, 0.75)"><path d="M2135.548 756.581c-2.305-5.903-9.154-23.633-13.828-35.416-4.675-11.784-9.45-23.533-14.218-35.285a9399 9399 0 0 0-14.392-35.225 13447 13447 0 0 0-14.51-35.186c-4.85-11.723-9.72-23.44-14.596-35.155a22207 22207 0 0 0-14.666-35.133 27157 27157 0 0 0-14.72-35.114 32606 32606 0 0 0-14.767-35.098 45371.722 45371.722 0 0 0-44.509-105.224 61328 61328 0 0 0-29.8-70.105 81459 81459 0 0 0-29.874-70.08 106890 106890 0 0 0-29.93-70.063 138690 138690 0 0 0-29.97-70.048 177379 177379 0 0 0-45.017-105.051l-15.018-35.013-15.024-35.01c1.362 6.222 5.437 24.893 8.17 37.336a25382 25382 0 0 0 16.502 74.617 23885 23885 0 0 0 16.732 74.54 22419 22419 0 0 0 16.976 74.457 20954 20954 0 0 0 17.236 74.369 19454 19454 0 0 0 17.516 74.274 17881 17881 0 0 0 17.82 74.17 16185 16185 0 0 0 18.15 74.059q4.583 18.5 9.214 36.982a13260 13260 0 0 0 9.313 36.949q4.682 18.466 9.42 36.912t9.54 36.871a9529 9529 0 0 0 9.674 36.827 7975 7975 0 0 0 9.83 36.773 6143 6143 0 0 0 10.018 36.71c3.382 12.221 6.765 24.443 10.276 36.621s8.992 30.373 10.79 36.448Z"/><path d="M2122.473 704.44c-5.738-3.393-22.9-13.652-34.429-20.361-11.528-6.71-23.136-13.3-34.74-19.895a7392 7392 0 0 0-34.885-19.68c-11.645-6.535-23.31-13.04-34.983-19.532a13299 13299 0 0 0-35.058-19.421c-11.696-6.459-23.403-12.9-35.117-19.331a19498 19498 0 0 0-35.167-19.257 22831 22831 0 0 0-35.21-19.193 26364 26364 0 0 0-35.246-19.14 30128 30128 0 0 0-35.277-19.09 38482.79 38482.79 0 0 0-105.988-57.043 48182 48182 0 0 0-70.76-37.875 59571 59571 0 0 0-70.826-37.78 73078 73078 0 0 0-70.876-37.701 89238 89238 0 0 0-70.92-37.638 108721 108721 0 0 0-70.953-37.586c-11.829-6.26-29.574-15.647-35.488-18.777 5.013 4.479 20.047 17.924 30.08 26.871a22700 22700 0 0 0 60.281 53.563 21560 21560 0 0 0 60.448 53.312 20367 20367 0 0 0 60.624 53.05 19104 19104 0 0 0 60.811 52.768 17750 17750 0 0 0 61.012 52.47 16278 16278 0 0 0 61.23 52.142 14655 14655 0 0 0 30.702 25.94q15.367 12.947 30.766 25.845 15.4 12.898 30.834 25.743 15.434 12.846 30.907 25.634a10756 10756 0 0 0 30.986 25.516 9587 9587 0 0 0 31.074 25.384 8306 8306 0 0 0 31.173 25.235 6880 6880 0 0 0 31.29 25.06 5237 5237 0 0 0 31.434 24.846c10.511 8.232 21.021 16.466 31.632 24.549 10.61 8.083 26.693 19.958 32.032 23.95Z"/><path d="M2116.192 713.614c-5.137-3.039-20.503-12.224-30.823-18.234s-20.71-11.915-31.095-17.825a6736 6736 0 0 0-31.222-17.635 9402 9402 0 0 0-31.308-17.506 12043 12043 0 0 0-31.373-17.408 14741 14741 0 0 0-31.427-17.327 17537 17537 0 0 0-31.47-17.261q-15.745-8.616-31.509-17.205a23539 23539 0 0 0-31.54-17.156 26795 26795 0 0 0-31.57-17.113 33939.08 33939.08 0 0 0-94.848-51.13 42107 42107 0 0 0-63.325-33.945 51545 51545 0 0 0-63.385-33.857 62555 62555 0 0 0-63.432-33.785 75506 75506 0 0 0-63.472-33.725 90859 90859 0 0 0-63.506-33.675c-10.587-5.61-26.47-14.018-31.763-16.822 4.508 3.984 18.028 15.943 27.05 23.901a21215 21215 0 0 0 54.205 47.648 20152 20152 0 0 0 54.347 47.434 19035 19035 0 0 0 54.497 47.208 17846 17846 0 0 0 54.658 46.968 16568 16568 0 0 0 54.828 46.71 15177 15177 0 0 0 55.016 46.43q13.779 11.57 27.583 23.1a12812 12812 0 0 0 27.638 23.02q13.832 11.49 27.696 22.932 13.862 11.445 27.758 22.838a9973 9973 0 0 0 27.827 22.735 8877 8877 0 0 0 27.903 22.622 7681 7681 0 0 0 27.989 22.492 6352 6352 0 0 0 28.089 22.34 4827 4827 0 0 0 28.214 22.154c9.434 7.342 18.866 14.685 28.386 21.896s23.945 17.81 28.735 21.372Z"/><path d="M2126.64 736.887c-4.561-5.5-18.189-22.041-27.369-32.997s-18.447-21.843-27.71-32.735a10951 10951 0 0 0-27.868-32.614 15179 15179 0 0 0-27.977-32.53 19296 19296 0 0 0-28.06-32.466 23421 23421 0 0 0-28.129-32.414 27606 27606 0 0 0-28.185-32.37 31880 31880 0 0 0-28.235-32.333 36264 36264 0 0 0-28.278-32.3 45414.028 45414.028 0 0 0-85.045-96.736 55131 55131 0 0 0-56.84-64.38 65451 65451 0 0 0-56.935-64.307 76380 76380 0 0 0-57.014-64.247 87891 87891 0 0 0-57.083-64.194 99921 99921 0 0 0-57.144-64.147q-14.294-16.03-28.593-32.057c-9.533-10.685-23.838-26.707-28.605-32.048 3.79 6.092 15.151 24.373 22.736 36.552a38172 38172 0 0 0 45.59 73.017 35932 35932 0 0 0 45.75 72.892 33635 33635 0 0 0 45.923 72.76 31254 31254 0 0 0 46.108 72.618 28760 28760 0 0 0 46.31 72.464 26118 26118 0 0 0 46.528 72.295q11.661 18.052 23.354 36.079a21771 21771 0 0 0 23.42 36.029q11.726 18.001 23.49 35.974a18516 18516 0 0 0 23.564 35.917q11.802 17.943 23.648 35.854t23.74 35.782 23.846 35.702c7.969 11.884 15.953 23.757 23.969 35.606a7990 7990 0 0 0 24.123 35.489c8.076 11.802 16.151 23.605 24.335 35.325s20.64 29.161 24.769 34.993Z"/><path d="M2123.567 696.945c-5.464-2.903-21.802-11.7-32.782-17.422s-22.04-11.315-33.097-16.914a6146 6146 0 0 0-33.239-16.685 8752 8752 0 0 0-33.335-16.53 11434 11434 0 0 0-33.406-16.415 14273 14273 0 0 0-33.463-16.323 17317 17317 0 0 0-33.51-16.248q-16.764-8.108-33.547-16.186a24170 24170 0 0 0-33.58-16.134 28046 28046 0 0 0-33.61-16.088 36856.883 36856.883 0 0 0-100.96-48.047 47260 47260 0 0 0-67.393-31.892 59392 59392 0 0 0-67.446-31.806 73206 73206 0 0 0-67.488-31.739 88334 88334 0 0 0-67.524-31.681 103949 103949 0 0 0-67.553-31.634c-11.261-5.27-28.155-13.168-33.786-15.802 4.71 4.121 18.831 16.495 28.258 24.725a17844 17844 0 0 0 56.641 49.248 16727 16727 0 0 0 56.818 48.962 15634 15634 0 0 0 57.007 48.658 14544 14544 0 0 0 57.208 48.332 13435 13435 0 0 0 57.426 47.98q14.385 11.95 28.8 23.85t28.862 23.75q14.448 11.847 28.928 23.644 14.48 11.795 28.996 23.533a9707 9707 0 0 0 29.07 23.414 8971 8971 0 0 0 29.149 23.287q14.594 11.611 29.234 23.149c9.76 7.69 19.535 15.359 29.33 22.996a6380 6380 0 0 0 29.435 22.824 5320 5320 0 0 0 29.559 22.624c9.878 7.5 19.773 14.975 29.711 22.38s19.876 14.808 29.918 22.045 25.276 17.815 30.331 21.378Z"/></g></svg>