<svg xmlns="http://www.w3.org/2000/svg" style="background:0 0" viewBox="0 0 1920 1080"><g fill="rgba(100, 65, 125, 0.80)"><path d="M2086.707 800.892c-5.005-5.008-19.947-20.1-30.032-30.05s-20.286-19.797-30.48-29.65a7907 7907 0 0 0-30.684-29.468 11152 11152 0 0 0-30.823-29.345 14423 14423 0 0 0-30.927-29.251 17809 17809 0 0 0-31.011-29.177 21352 21352 0 0 0-31.08-29.115q-15.556-14.544-31.138-29.063a29013 29013 0 0 0-31.188-29.019 33164 33164 0 0 0-31.232-28.979 42156.704 42156.704 0 0 0-93.91-86.747 52069 52069 0 0 0-62.75-57.704 62814 62814 0 0 0-62.84-57.623 74175 74175 0 0 0-62.916-57.555 85792 85792 0 0 0-62.983-57.495 97159 97159 0 0 0-63.04-57.444c-10.512-9.57-26.284-23.92-31.54-28.704 3.952 5.947 15.801 23.799 23.716 35.686a24834 24834 0 0 0 47.6 71.226 23234 23234 0 0 0 47.834 71.016 21658 21658 0 0 0 48.084 70.793 20081 20081 0 0 0 48.353 70.553 18477 18477 0 0 0 48.644 70.293 16814 16814 0 0 0 24.44 35.042q12.24 17.502 24.523 34.967 12.283 17.464 24.611 34.888a14120 14120 0 0 0 24.706 34.805q12.376 17.38 24.805 34.715a12107 12107 0 0 0 24.913 34.619 11004 11004 0 0 0 25.03 34.514 9816 9816 0 0 0 25.161 34.398 8519 8519 0 0 0 25.309 34.266 7074 7074 0 0 0 25.48 34.113 5405 5405 0 0 0 25.692 33.924c8.612 11.265 17.223 22.53 25.981 33.666s22.138 27.62 26.565 33.145Z"/><path d="M2054.525 790.658c-7.219-3.386-28.835-13.621-43.314-20.316s-29.02-13.27-43.558-19.853-29.1-13.12-43.668-19.643a16461 16461 0 0 0-43.742-19.502 21533 21533 0 0 0-43.798-19.395 26967 26967 0 0 0-43.842-19.313q-21.93-9.638-43.877-19.244-21.946-9.607-43.906-19.189a46761 46761 0 0 0-43.932-19.141 55015 55015 0 0 0-43.952-19.102 75220.302 75220.302 0 0 0-131.955-57.118 102499 102499 0 0 0-88.03-37.964 141054 141054 0 0 0-88.064-37.902 198826 198826 0 0 0-88.086-37.857 292740 292740 0 0 0-88.103-37.826 466093 466093 0 0 0-88.114-37.806l-44.059-18.898c6.633 4.502 26.525 18.02 39.797 27.013a30184 30184 0 0 0 79.7 53.822 28784 28784 0 0 0 79.85 53.54 27341 27341 0 0 0 80.004 53.242 25824 25824 0 0 0 80.17 52.928 24195 24195 0 0 0 80.345 52.596 22409 22409 0 0 0 80.533 52.236 20406 20406 0 0 0 40.342 25.974q20.185 12.962 40.397 25.872a18106 18106 0 0 0 40.453 25.762 16811 16811 0 0 0 40.515 25.645 15395 15395 0 0 0 40.582 25.52c13.539 8.482 27.089 16.945 40.654 25.38a12085 12085 0 0 0 40.736 25.224 10100 10100 0 0 0 40.832 25.043 7763 7763 0 0 0 40.947 24.821c13.676 8.223 27.352 16.447 41.107 24.52 13.755 8.071 34.52 19.927 41.425 23.913Z"/><path d="M2067.791 794.846c-6.594-4.494-26.322-18.05-39.565-26.963-13.244-8.914-26.573-17.714-39.897-26.52a10703 10703 0 0 0-40.05-26.317 14935 14935 0 0 0-40.154-26.176 19127 19127 0 0 0-40.234-26.07 23404 23404 0 0 0-40.3-25.983 27831 27831 0 0 0-40.352-25.911 32454 32454 0 0 0-40.398-25.851 37311 37311 0 0 0-40.438-25.798 42437 42437 0 0 0-40.472-25.752 53637.752 53637.752 0 0 0-121.588-77.028 66348 66348 0 0 0-81.172-51.198 80892 80892 0 0 0-81.245-51.103 97645 97645 0 0 0-81.304-51.024 117034 117034 0 0 0-81.354-50.957 139548 139548 0 0 0-81.396-50.902c-13.569-8.48-33.926-21.194-40.71-25.433 5.83 5.514 23.313 22.066 34.98 33.085a33760 33760 0 0 0 70.085 66.003 32036 32036 0 0 0 70.258 65.774 30232 30232 0 0 0 70.44 65.53 28322 28322 0 0 0 70.633 65.272 26276 26276 0 0 0 70.84 64.995 24058 24058 0 0 0 71.068 64.692 21620 21620 0 0 0 35.626 32.223 20300 20300 0 0 0 35.691 32.135 18899 18899 0 0 0 35.763 32.041 17405 17405 0 0 0 35.838 31.94 15801 15801 0 0 0 35.922 31.827c11.99 10.59 23.992 21.16 36.014 31.705a12175 12175 0 0 0 36.118 31.566 10072 10072 0 0 0 36.241 31.401 7657 7657 0 0 0 36.393 31.199c12.166 10.353 24.33 20.708 36.602 30.92s30.855 25.295 37.026 30.354Z"/><path d="M2103.006 817.566c-3.944-6.542-15.682-26.22-23.663-39.256s-16.103-25.995-24.22-38.959a8543 8543 0 0 0-24.478-38.82 11859 11859 0 0 0-24.656-38.726 15092 15092 0 0 0-24.792-38.653 18330 18330 0 0 0-24.904-38.594 21609 21609 0 0 0-24.996-38.544 24949 24949 0 0 0-25.076-38.502 28360 28360 0 0 0-25.147-38.464 31848 31848 0 0 0-25.208-38.432 35414 35414 0 0 0-25.264-38.401 42780.21 42780.21 0 0 0-76.075-115.053 50425 50425 0 0 0-50.916-76.596 58282 58282 0 0 0-51.05-76.525 66254 66254 0 0 0-51.166-76.462 74221 74221 0 0 0-51.27-76.407q-12.83-19.095-25.67-38.184c-8.561-12.726-21.412-31.81-25.694-38.173 2.678 7.219 10.701 28.88 16.067 43.31a30627 30627 0 0 0 32.318 86.522 28660 28660 0 0 0 32.579 86.382 26681 26681 0 0 0 32.857 86.233 24670 24670 0 0 0 33.158 86.073 22601 22601 0 0 0 33.486 85.898q8.414 21.452 16.875 42.879t16.97 42.828a18165 18165 0 0 0 17.07 42.774 16962 16962 0 0 0 17.177 42.717 15708 15708 0 0 0 17.292 42.656 14393 14393 0 0 0 17.416 42.59 13003 13003 0 0 0 17.553 42.517 11523 11523 0 0 0 17.705 42.435 9928 9928 0 0 0 17.878 42.344 8180 8180 0 0 0 18.082 42.234c6.07 14.056 12.165 28.097 18.335 42.1 6.17 14.001 12.338 28.004 18.685 41.912s16.163 34.611 19.396 41.533Z"/><path d="M2075.792 793.835c-6.144-4.756-24.512-19.099-36.865-28.535s-24.804-18.757-37.251-28.082a9254 9254 0 0 0-37.432-27.87 12744 12744 0 0 0-37.557-27.724 16101 16101 0 0 0-37.654-27.61 19427 19427 0 0 0-37.733-27.516q-18.885-13.737-37.8-27.438t-37.858-27.37a29589 29589 0 0 0-37.91-27.31 33103 33103 0 0 0-37.953-27.258 40395.067 40395.067 0 0 0-114.091-81.504 48102 48102 0 0 0-76.22-54.148 56287 56287 0 0 0-76.325-54.026 65008 65008 0 0 0-76.416-53.919 74318 74318 0 0 0-76.495-53.826 84265 84265 0 0 0-76.565-53.743c-12.767-8.952-31.922-22.37-38.307-26.845 5.282 5.768 21.12 23.08 31.691 34.608a33922 33922 0 0 0 63.508 69.066 32032 32032 0 0 0 63.685 68.859 30049 30049 0 0 0 63.872 68.638 27954 27954 0 0 0 64.074 68.401 25726 25726 0 0 0 64.293 68.146 23338 23338 0 0 0 64.531 67.865 20757 20757 0 0 0 32.364 33.818q16.199 16.888 32.435 33.734a17934 17934 0 0 0 32.51 33.644 16412 16412 0 0 0 32.595 33.548 14801 14801 0 0 0 32.685 33.44 13085 13085 0 0 0 32.786 33.322 11240 11240 0 0 0 32.902 33.186 9225 9225 0 0 0 33.04 33.024 6954 6954 0 0 0 33.21 32.825c11.109 10.895 22.216 21.792 33.447 32.546 11.23 10.754 28.277 26.647 33.933 31.976Z"/></g></svg>