<svg xmlns="http://www.w3.org/2000/svg" style="background:0 0" viewBox="0 0 1920 1080"><g fill="rgba(15, 5, 25, 0.95)"><path d="M2132.795 1067.237c-8.742-2.408-34.944-9.7-52.449-14.445-17.505-4.744-35.043-9.38-52.58-14.021a17597 17597 0 0 0-52.64-13.83c-17.553-4.588-35.115-9.15-52.68-13.7a32531 32531 0 0 0-52.711-13.602A40577 40577 0 0 0 1817 984.113a49276 49276 0 0 0-52.754-13.462 58794 58794 0 0 0-52.77-13.411 69308 69308 0 0 0-52.785-13.366q-26.396-6.674-52.796-13.33a94181 94181 0 0 0-105.62-26.564 126062 126062 0 0 0-105.652-26.468 168275 168275 0 0 0-105.674-26.396 226254 226254 0 0 0-105.69-26.34 309521 309521 0 0 0-105.703-26.302A436275 436275 0 0 0 971.844 772.2l-52.858-13.129-52.86-13.124c8.426 3.418 33.703 13.684 50.559 20.511a46945 46945 0 0 0 101.174 40.842 44755 44755 0 0 0 101.252 40.59 42489 42489 0 0 0 101.335 40.325 40100 40100 0 0 0 101.422 40.046 37533 37533 0 0 0 101.515 39.747 34719 34719 0 0 0 101.615 39.426 31569 31569 0 0 0 101.725 39.075q25.445 9.722 50.907 19.394a25940 25940 0 0 0 50.94 19.288q25.477 9.617 50.975 19.175a21300 21300 0 0 0 51.014 19.05c17.012 6.325 34.03 12.632 51.058 18.907s34.062 12.53 51.11 18.745a11916 11916 0 0 0 51.171 18.543c17.072 6.135 34.143 12.271 51.257 18.27 17.115 5.997 42.858 14.765 51.43 17.718Z"/><path d="M2142.43 1051.683c-10.511-3.483-42.014-14.017-63.069-20.896s-42.16-13.624-63.26-20.377a21147 21147 0 0 0-63.349-20.143 30072 30072 0 0 0-63.406-19.985 39249 39249 0 0 0-63.45-19.866 48955 48955 0 0 0-63.484-19.774 59359 59359 0 0 0-63.512-19.697 70593 70593 0 0 0-63.536-19.633 82780 82780 0 0 0-63.556-19.58 96037 96037 0 0 0-63.573-19.532q-31.791-9.756-63.588-19.493a126215 126215 0 0 0-127.214-38.885 161968 161968 0 0 0-127.253-38.775 203887 203887 0 0 0-127.286-38.689 251992 251992 0 0 0-127.311-38.62 305250 305250 0 0 0-127.333-38.561 361042 361042 0 0 0-127.35-38.514c-21.226-6.416-53.067-16.035-63.68-19.242 10.052 4.725 40.204 18.911 60.313 28.35a60054 60054 0 0 0 120.705 56.49 56423 56423 0 0 0 120.813 56.198 52853 52853 0 0 0 120.928 55.888 49277 49277 0 0 0 121.05 55.555 45621 45621 0 0 0 121.184 55.196 41799 41799 0 0 0 121.327 54.807q30.351 13.65 60.722 27.244a35504 35504 0 0 0 60.765 27.132 33181 33181 0 0 0 60.808 27.01 30702 30702 0 0 0 60.857 26.88 28032 28032 0 0 0 60.91 26.74 25125 25125 0 0 0 60.966 26.584c20.333 8.832 40.675 17.64 61.032 26.408a18295 18295 0 0 0 61.106 26.205 14059 14059 0 0 0 61.2 25.955c20.42 8.594 40.84 17.19 61.324 25.614s51.315 20.777 61.577 24.933Z"/><path d="M2188.75 1082.82c-6.34-8.85-25.273-35.455-38.033-53.1s-25.646-35.205-38.527-52.77a18165 18165 0 0 0-38.758-52.616 24992 24992 0 0 0-38.919-52.509 31523 31523 0 0 0-39.043-52.426 37940 37940 0 0 0-39.144-52.359 44316 44316 0 0 0-39.23-52.3 50686 50686 0 0 0-39.306-52.252 57066 57066 0 0 0-39.371-52.207 63464 63464 0 0 0-39.43-52.168 76309.713 76309.713 0 0 0-118.593-156.302 89178 89178 0 0 0-79.275-104.06 101980 101980 0 0 0-79.42-103.962 114599 114599 0 0 0-79.548-103.878 126902 126902 0 0 0-79.664-103.8 138750 138750 0 0 0-79.768-103.73c-13.303-17.283-33.268-43.2-39.921-51.84 5.238 9.583 20.944 38.34 31.429 57.502A71485 71485 0 0 0 1337.237 2.95a66600 66600 0 0 0 63.22 114.766 61708 61708 0 0 0 63.447 114.614 56764 56764 0 0 0 63.695 114.449 51718 51718 0 0 0 63.965 114.268 46507 46507 0 0 0 32.092 57.061 43816 43816 0 0 0 32.172 57.009 41055 41055 0 0 0 32.256 56.952 38208 38208 0 0 0 32.346 56.892 35259 35259 0 0 0 32.442 56.827q16.247 28.397 32.549 56.757c10.869 18.906 21.754 37.801 32.664 56.68a25574 25574 0 0 0 32.795 56.593 21945 21945 0 0 0 32.943 56.493 18003 18003 0 0 0 33.12 56.376 13573 13573 0 0 0 33.34 56.23c11.163 18.71 22.324 37.42 33.643 56.026 11.32 18.606 28.558 46.342 34.27 55.61Z"/><path d="M2153.85 1072.548c-9.709-6.25-38.788-25.064-58.249-37.498s-38.99-24.766-58.517-37.103a25561 25561 0 0 0-58.643-36.92 35357 35357 0 0 0-58.729-36.792 44865 44865 0 0 0-58.795-36.694 54366 54366 0 0 0-58.85-36.615 63984 63984 0 0 0-58.895-36.549 73793 73793 0 0 0-58.934-36.49 83844 83844 0 0 0-58.968-36.442 104815.785 104815.785 0 0 0-177.075-109.073 127128 127128 0 0 0-118.166-72.544 150938 150938 0 0 0-118.24-72.436 176355 176355 0 0 0-118.305-72.341 203439 203439 0 0 0-118.36-72.26 232196 232196 0 0 0-118.408-72.19q-29.607-18.04-59.22-36.071c-19.742-12.021-49.359-30.047-59.23-36.056 9.1 7.142 36.394 28.577 54.6 42.855a89085 89085 0 0 0 109.29 85.577 84061 84061 0 0 0 109.419 85.39 78850 78850 0 0 0 109.554 85.191 73397 73397 0 0 0 109.699 84.977 67638 67638 0 0 0 109.856 84.747 61489 61489 0 0 0 110.03 84.494 54847 54847 0 0 0 55.084 42.143 51299 51299 0 0 0 55.136 42.069 47571 47571 0 0 0 55.19 41.988 43633 43633 0 0 0 55.25 41.901 39452 39452 0 0 0 55.315 41.806c18.45 13.917 36.91 27.82 55.387 41.7a30142 30142 0 0 0 55.47 41.578 24828 24828 0 0 0 55.566 41.435 18793 18793 0 0 0 55.688 41.258c18.59 13.712 37.18 27.426 55.855 41.013s46.83 33.76 56.196 40.512Z"/><path d="M2179.435 1090.417c-6.33-9.197-25.247-36.833-37.98-55.18-12.731-18.347-25.573-36.622-38.41-54.9a22301 22301 0 0 0-38.613-54.771 30921 30921 0 0 0-38.75-54.682 39310 39310 0 0 0-38.856-54.613 47702 47702 0 0 0-38.942-54.558q-19.491-27.266-39.014-54.51a64835 64835 0 0 0-39.077-54.471 73659 73659 0 0 0-39.13-54.436A91905.519 91905.519 0 0 0 1713 435.164a110973 110973 0 0 0-78.628-108.635 130798 130798 0 0 0-78.747-108.557 151238 151238 0 0 0-78.851-108.49A172072 172072 0 0 0 1397.832 1.05a193010 193010 0 0 0-79.022-108.38 213705 213705 0 0 0-39.539-54.171c-13.182-18.056-32.963-45.134-39.556-54.161 5.35 9.83 21.389 39.327 32.095 58.983a78971 78971 0 0 0 64.333 117.873 74016 74016 0 0 0 64.535 117.742 69011 69011 0 0 0 64.752 117.603 63901 63901 0 0 0 64.984 117.453 58624 58624 0 0 0 65.237 117.289 53102 53102 0 0 0 65.515 117.109q16.415 29.254 32.872 58.48a44138 44138 0 0 0 32.954 58.428q16.499 29.2 33.044 58.37a37497 37497 0 0 0 33.14 58.307 33898 33898 0 0 0 33.245 58.24q16.65 29.102 33.363 58.163a25914 25914 0 0 0 33.497 58.077 21364 21364 0 0 0 33.654 57.975 16191 16191 0 0 0 33.851 57.848c11.329 19.253 22.656 38.508 34.121 57.673s28.894 47.764 34.672 57.317Z"/></g></svg>